<?xml version="1.0" standalone="no"?>
<!DOCTYPE svg PUBLIC "-//W3C//DTD SVG 20010904//EN"
 "http://www.w3.org/TR/2001/REC-SVG-20010904/DTD/svg10.dtd">
<svg version="1.0" xmlns="http://www.w3.org/2000/svg"
 width="500.000000pt" height="500.000000pt" viewBox="0 0 500.000000 500.000000"
 preserveAspectRatio="xMidYMid meet">
<metadata>
Created by potrace 1.14, written by Peter Selinger 2001-2017
</metadata>
<g transform="translate(0.000000,500.000000) scale(0.100000,-0.100000)"
fill="#000000" stroke="none">
<path d="M0 2500 l0 -2500 2500 0 2500 0 0 2500 0 2500 -2500 0 -2500 0 0
-2500z m1955 1110 l550 -550 550 550 c302 303 554 550 560 550 6 0 134 -124
285 -275 l275 -275 -555 -555 -555 -555 555 -555 555 -555 -280 -280 -280
-280 -555 555 -555 555 -555 -555 -555 -555 -280 280 -280 280 555 555 555
555 -555 555 -555 555 275 275 c151 151 279 275 285 275 5 0 257 -247 560
-550z"/>
</g>
</svg>
